mtllib materials.mtl
v 0.07771581 0.03160906 -0.04647184
v 0.07771581 0.03160906 0.04898269
v 0.07771581 0.1270635 0.04898269
v 0.07771581 0.1270635 -0.04647184
v -0.0177387 0.03160906 -0.04647184
v -0.0177387 0.1270635 -0.04647184
v -0.08773866 0.102164 -0.02157241
v -0.08773866 0.05650866 -0.02157241
v -0.008670509 -0.06384552 -0.03740373
v 0.06864768 -0.06384552 -0.03740376
v 0.08773857 0.1407 0.0590054
v 0.08773857 0.1407 -0.05649454
v -0.0177387 0.03160906 0.04898269
v -0.0177387 0.1270635 0.04898269
v -0.008670479 -0.06384552 0.03991441
v 0.06864762 -0.06384552 0.03991444
v 0.004624367 -0.2274821 -0.02410893
v 0.0553529 -0.2274821 -0.02410896
v 0.004624426 -0.2274821 0.02661949
v 0.05535287 -0.2274821 0.02661951
v -0.0007021427 -0.237482 -0.02943542
v 0.06067938 -0.237482 -0.02943544
v -0.0277614 0.1407 0.05900538
v -0.0277614 0.1407 -0.05649455
v 0.08773866 0.181609 0.0590054
v 0.08773866 0.181609 -0.05649453
v -0.02776131 0.181609 0.05900538
v -0.02776131 0.181609 -0.05649456
v 0.07208842 0.2088817 0.0433551
v 0.07208848 0.2088817 -0.04084435
v -0.004112065 0.2032586 0.08379716
v 0.06408951 0.2032586 0.08379717
v -0.01211104 0.2088817 -0.04084437
v -0.01211104 0.2088817 0.04335509
v 0.06787843 0.2035662 -0.08389468
v -0.007901073 0.2035662 -0.0838947
v 0.06067941 0.222518 0.03194609
v 0.06067944 0.222518 -0.02943529
v -0.0007019639 0.222518 0.03194607
v -0.0007019639 0.222518 -0.02943532
v 0.0523622 0.2088816 0.02362891
v 0.05236223 0.2088816 -0.02111812
v 0.007615209 0.2088816 0.02362889
v 0.007615209 0.2088816 -0.02111813
v 0.005129248 0.2193629 0.07455581
v 0.05484819 0.2193629 0.07455583
v 0.002367109 0.2115827 0.0947589
v 0.05761039 0.2115827 0.09475891
v 0.009852558 0.2246271 0.08727342
v 0.04793003 0.2719134 0.05487645
v 0.01204738 0.2719134 0.05487643
v 0.05012491 0.2246271 0.08727343
v 0.04452121 0.2757128 0.06405486
v 0.01545626 0.2757128 0.06405485
v 0.03960028 0.2783073 0.03439826
v 0.02037716 0.2783073 0.03439827
v 0.04460195 0.2858841 0.0544689
v 0.01537552 0.2858841 0.0544689
v 0.05761039 0.2214596 -0.07362659
v 0.002367049 0.2214596 -0.07362662
v 0.06067941 0.21206 -0.0947589
v -0.0007020533 0.21206 -0.09475891
v 0.05236223 0.2265538 -0.08644176
v 0.01025322 0.273594 -0.04899548
v 0.04972419 0.273594 -0.04899545
v 0.007615119 0.2265538 -0.08644176
v 0.01400292 0.2772336 -0.05815181
v 0.0459744 0.2772336 -0.0581518
v 0.01824117 0.2802228 -0.028891
v 0.04173613 0.2802228 -0.02889099
v 0.01391411 0.287482 -0.04877648
v 0.04606318 0.287482 -0.04877641
v -0.0007020533 -0.237482 0.03194597
v 0.06067935 -0.237482 0.031946
v 0.005129099 -0.2674819 -0.02360414
v 0.05484813 -0.2674819 -0.02360415
v 0.005129188 -0.2674819 0.02611478
v 0.0548481 -0.2674819 0.02611481
v 0.01367843 -0.2874819 -0.01505497
v 0.04629904 -0.2874819 -0.01505501
v 0.01367849 -0.2874819 0.0175656
v 0.04629907 -0.2874819 0.01756564
v -0.08773863 0.102164 0.02408319
v -0.08773863 0.05650866 0.02408319
vn 1 0 0
vn -0.3351358 -2.258108E-09 -0.9421698
vn -2.349256E-07 -0.09457329 -0.9955179
vn 0.8057653 -0.592235 -1.493565E-08
vn 0 0 -1
vn 0 0 1
vn -0.9955178 -0.09457443 2.372759E-07
vn -2.104069E-07 -0.09457507 0.9955177
vn 0.9955178 -0.09457404 2.396789E-07
vn -5.330018E-07 -0.08097909 -0.9967158
vn -0.9967158 -0.08097967 6.357417E-07
vn -4.868629E-07 -0.08097986 0.9967158
vn 0.9967158 -0.08097894 6.353784E-07
vn -3.80135E-07 0.4701203 -0.8826023
vn -9.174639E-08 -0.5922329 0.8057668
vn -0.8057676 -0.5922318 -1.295897E-08
vn 3.111104E-08 -0.5922332 -0.8057666
vn 1 -2.006809E-06 0
vn -1.828957E-07 3.495393E-13 1
vn -1 1.937809E-06 0
vn 1.810631E-07 -3.495393E-13 -1
vn 0.86734 0.4977162 1.889673E-07
vn -1.007164E-07 -0.7532275 0.65776
vn -0.8673391 0.4977176 1.649633E-08
vn 1.507239E-07 -0.7803546 -0.6253373
vn 0.7669604 0.6416944 4.398775E-07
vn -2.33041E-07 0.6416944 0.7669604
vn -0.7669592 0.6416958 -3.843259E-08
vn 3.417509E-07 0.641696 -0.7669592
vn -0.8537306 0.520715 -5.610041E-07
vn 3.144273E-07 0.5207144 -0.853731
vn 0.8537318 0.520713 -5.197261E-08
vn -3.27196E-07 0.5207141 0.8537311
vn 0 1 0
vn -0.7787561 0.5816851 0.2349074
vn 1.09744E-07 0.9479438 -0.3184378
vn 0.7787568 0.5816844 0.2349065
vn -1.665331E-07 -0.7964038 0.6047652
vn -0.8403387 0.5343854 0.09090155
vn 4.697607E-07 -0.3507003 -0.9364877
vn 0.8403392 0.534385 0.09089857
vn -1.60067E-07 0.4977181 0.8673388
vn 0.9406294 0.2204785 0.2580807
vn -4.611248E-07 0.4137704 0.9103813
vn -0.9406284 0.2204792 0.2580837
vn 4.885838E-08 -0.9545531 -0.2980408
vn 0.9393909 0.231166 0.2531937
vn -3.872217E-07 0.6858568 0.7277365
vn -0.939389 0.2311695 0.2531976
vn 0.9266013 0.2116664 -0.3108173
vn -1.183288E-08 0.9355556 -0.3531795
vn -0.9266003 0.2116705 -0.3108176
vn 0.8185103 0.5549491 -0.1485678
vn -9.310787E-08 0.9336381 0.3582177
vn -0.8185101 0.5549501 -0.148565
vn 1.528835E-07 -0.7878093 -0.6159194
vn 0.8288578 0.5458964 -0.1224412
vn -3.055485E-07 -0.4271781 0.9041675
vn -0.8288578 0.545897 -0.122438
vn 2.510781E-07 0.4977154 -0.8673404
vn -0.9241996 0.2682385 -0.2718514
vn -5.896135E-08 0.487413 -0.8731716
vn 0.9241979 0.2682399 -0.2718558
vn -1.85443E-07 -0.9497091 0.3131333
vn -0.9269837 0.2487806 -0.2807301
vn 7.669667E-07 0.67498 -0.737836
vn 0.9269806 0.2487885 -0.2807335
vn -0.9267691 0.2397368 0.2891803
vn -4.548135E-07 0.9393653 0.3429181
vn 0.9267665 0.2397434 0.2891831
vn -0.8826023 0.4701203 9.257424E-07
vn -4.611807E-07 0.4701208 0.882602
vn 0.8826029 0.4701194 5.706554E-07
vn -3.424485E-07 -0.1908052 -0.9816279
vn -0.9816281 -0.1908039 1.541579E-06
vn -5.188192E-07 -0.1908024 0.9816285
vn 0.9816282 -0.1908039 5.156004E-07
vn -5.729788E-07 -0.3930545 -0.9195152
vn -0.9195126 -0.3930606 1.706696E-06
vn -7.608708E-07 -0.3930553 0.9195149
vn 0.9195167 -0.3930508 4.246758E-08
vn 0 -1 0
vn -0.335137 0.9421694 5.471541E-08
vn -0.3351368 -6.748901E-09 0.9421695
vn -0.3351384 -0.9421689 5.346075E-08
vn -1 0 0
usemtl mat23
f 4//1 3//1 2//1 1//1
f 8//2 7//2 6//2 5//2
f 10//3 9//3 5//3 1//3
f 5//5 6//5 4//5 1//5
f 3//6 14//6 13//6 2//6
f 9//7 15//7 13//7 5//7
f 15//8 16//8 2//8 13//8
f 16//9 10//9 1//9 2//9
f 22//14 21//14 17//14 18//14
f 38//26 37//26 29//26 30//26
f 37//27 39//27 34//27 29//27
f 39//28 40//28 33//28 34//28
f 40//29 38//29 30//29 33//29
f 42//30 41//30 37//30 38//30
f 41//31 43//31 39//31 37//31
f 43//32 44//32 40//32 39//32
f 44//33 42//33 38//33 40//33
f 21//71 73//71 19//71 17//71
f 73//72 74//72 20//72 19//72
f 74//73 22//73 18//73 20//73
f 76//74 75//74 21//74 22//74
f 75//75 77//75 73//75 21//75
f 77//76 78//76 74//76 73//76
f 78//77 76//77 22//77 74//77
f 80//78 79//78 75//78 76//78
f 79//79 81//79 77//79 75//79
f 81//80 82//80 78//80 77//80
f 82//81 80//81 76//81 78//81
f 82//82 81//82 79//82 80//82
f 7//83 83//83 14//83 6//83
f 83//84 84//84 13//84 14//84
f 84//85 8//85 5//85 13//85
f 84//86 83//86 7//86 8//86
usemtl mat15
f 12//4 11//4 3//4 4//4
f 18//10 17//10 9//10 10//10
f 17//11 19//11 15//11 9//11
f 19//12 20//12 16//12 15//12
f 20//13 18//13 10//13 16//13
f 11//15 23//15 14//15 3//15
f 23//16 24//16 6//16 14//16
f 24//17 12//17 4//17 6//17
f 26//18 25//18 11//18 12//18
f 25//19 27//19 23//19 11//19
f 27//20 28//20 24//20 23//20
f 28//21 26//21 12//21 24//21
f 30//22 29//22 25//22 26//22
f 32//23 31//23 27//23 25//23
f 34//24 33//24 28//24 27//24
f 36//25 35//25 26//25 28//25
f 31//35 45//35 34//35 27//35
f 45//36 46//36 29//36 34//36
f 46//37 32//37 25//37 29//37
f 48//38 47//38 31//38 32//38
f 47//39 49//39 45//39 31//39
f 51//40 50//40 46//40 45//40
f 52//41 48//41 32//41 46//41
f 52//42 49//42 47//42 48//42
f 50//43 53//43 52//43 46//43
f 53//44 54//44 49//44 52//44
f 54//45 51//45 45//45 49//45
f 56//46 55//46 50//46 51//46
f 57//47 53//47 50//47
f 57//48 58//48 54//48 53//48
f 58//49 51//49 54//49
f 55//50 57//50 50//50
f 55//51 56//51 58//51 57//51
f 56//52 51//52 58//52
f 35//53 59//53 30//53 26//53
f 59//54 60//54 33//54 30//54
f 60//55 36//55 28//55 33//55
f 62//56 61//56 35//56 36//56
f 61//57 63//57 59//57 35//57
f 65//58 64//58 60//58 59//58
f 66//59 62//59 36//59 60//59
f 66//60 63//60 61//60 62//60
f 64//61 67//61 66//61 60//61
f 67//62 68//62 63//62 66//62
f 68//63 65//63 59//63 63//63
f 70//64 69//64 64//64 65//64
f 71//65 67//65 64//65
f 71//66 72//66 68//66 67//66
f 72//67 65//67 68//67
f 69//68 71//68 64//68
f 69//69 70//69 72//69 71//69
f 70//70 65//70 72//70
usemtl mat8
f 44//34 43//34 41//34 42//34
